<?xml version="1.0" encoding="UTF-8"?>
<svg width="16px" height="16px" viewBox="0 0 16 16" version="1.1" xmlns="http://www.w3.org/2000/svg" xmlns:xlink="http://www.w3.org/1999/xlink">
    <!-- Generator: Sketch 43 (38999) - http://www.bohemiancoding.com/sketch -->
    <title></title>
    <desc>Created with Sketch.</desc>
    <defs></defs>
    <g id="Page-1" stroke="none" stroke-width="1" fill="none" fill-rule="evenodd">
        <g id="new-courier-waybill" transform="translate(-314.000000, -985.000000)" fill="#0FC930">
            <path d="M329.488281,993.25 C329.441406,995.382823 328.714851,997.152337 327.308594,998.558594 C325.902337,999.964851 324.132823,1000.69141 322,1000.73828 C319.867177,1000.69141 318.097663,999.964851 316.691406,998.558594 C315.285149,997.152337 314.558594,995.382823 314.511719,993.25 L314.511719,987.625 C314.511719,987.085935 314.687498,986.640627 315.039062,986.289062 C315.390627,985.937498 315.835935,985.761719 316.375,985.761719 L327.625,985.761719 C328.164065,985.761719 328.609373,985.937498 328.960938,986.289062 C329.312502,986.640627 329.488281,987.085935 329.488281,987.625 L329.488281,993.25 Z M324.917969,990.4375 L322,993.355469 L319.082031,990.4375 C318.847655,990.203124 318.583986,990.085938 318.291016,990.085938 C317.998045,990.085938 317.740235,990.203124 317.517578,990.4375 C317.294921,990.671876 317.183594,990.935545 317.183594,991.228516 C317.183594,991.521486 317.289061,991.785155 317.5,992.019531 L321.191406,995.746094 C321.425782,995.957032 321.695311,996.0625 322,996.0625 C322.304689,996.0625 322.574218,995.957032 322.808594,995.746094 L326.5,992.019531 C326.710939,991.785155 326.816406,991.521486 326.816406,991.228516 C326.816406,990.935545 326.705079,990.677735 326.482422,990.455078 C326.259765,990.232421 326.001955,990.121094 325.708984,990.121094 C325.416014,990.121094 325.152345,990.226561 324.917969,990.4375 Z" id=""></path>
        </g>
    </g>
</svg>