<?xml version="1.0" encoding="UTF-8"?>
<svg width="19px" height="14px" viewBox="0 0 19 14" version="1.1" xmlns="http://www.w3.org/2000/svg" xmlns:xlink="http://www.w3.org/1999/xlink">
    <!-- Generator: Sketch 43 (38999) - http://www.bohemiancoding.com/sketch -->
    <title>Shape</title>
    <desc>Created with Sketch.</desc>
    <defs></defs>
    <g id="Page-1" stroke="none" stroke-width="1" fill="none" fill-rule="evenodd">
        <g id="new-courier-waybill" transform="translate(-180.000000, -987.000000)" fill-rule="nonzero" fill="#D2E0F9">
            <g id="Shortchuts" transform="translate(30.000000, 923.000000)">
                <g id="Group-2" transform="translate(0.000000, 48.000000)">
                    <g id="Short-cut" transform="translate(179.000000, 23.000000) rotate(-180.000000) translate(-179.000000, -23.000000) ">
                        <g id="iconmonstr-binoculars-7" transform="translate(189.753582, 16.235294)">
                            <path d="M15.3438634,8.75352941 C16.3920296,9.89300654 15.2269007,11.721732 13.7348758,11.1790523 C14.8310267,10.9452941 15.5867861,10.0591176 15.3438634,8.75352941 Z M3.2367192,11.1790523 C4.72874403,11.721732 5.89462273,9.89375817 4.84570678,8.75352941 C5.08937918,10.0591176 4.33361987,10.9452941 3.2367192,11.1790523 Z M12.6492216,0.986143791 C12.4377889,0.411895425 11.8919628,-1.12132525e-13 11.2464183,-1.12132525e-13 C10.2732283,-1.12132525e-13 9.51222063,0.93503268 9.81887297,1.94071895 C10.6518577,1.64382353 11.5778128,1.11166667 12.6492216,0.986143791 Z M17.9942693,9.77124183 C17.9942693,11.8465033 16.3163037,13.5294118 14.2454632,13.5294118 C11.2171777,13.5294118 11.1294556,10.4304248 8.99713467,10.4304248 C6.86481375,10.4304248 6.77709169,13.5294118 3.74880611,13.5294118 C1.67796562,13.5294118 3.55271368e-15,11.8465033 3.55271368e-15,9.77124183 C3.55271368e-15,8.16650327 1.15088348,6.33852941 2.95480898,3.14107843 C4.38535339,0.606568627 6.51917383,2.19401961 8.06443171,2.70137255 C8.64999522,2.89379085 9.30453677,2.90581699 9.92833811,2.70137255 C11.4743457,2.19477124 13.6081662,0.606568627 15.0379608,3.14107843 C16.8433859,6.33852941 17.9942693,8.16650327 17.9942693,9.77124183 L17.9942693,9.77124183 Z M5.99808978,9.77124183 C5.99808978,8.52803922 4.98891117,7.51633987 3.74880611,7.51633987 C2.50870105,7.51633987 1.49952245,8.52803922 1.49952245,9.77124183 C1.49952245,11.0144444 2.50870105,12.0261438 3.74880611,12.0261438 C4.98891117,12.0261438 5.99808978,11.0144444 5.99808978,9.77124183 Z M9.74689589,8.26797386 C9.74689589,7.8530719 9.41175263,7.51633987 8.99713467,7.51633987 C8.58251671,7.51633987 8.24737345,7.8530719 8.24737345,8.26797386 C8.24737345,8.68287582 8.58251671,9.01960784 8.99713467,9.01960784 C9.41175263,9.01960784 9.74689589,8.68287582 9.74689589,8.26797386 Z M16.4947469,9.77124183 C16.4947469,8.52803922 15.4855683,7.51633987 14.2454632,7.51633987 C13.0053582,7.51633987 11.9961796,8.52803922 11.9961796,9.77124183 C11.9961796,11.0144444 13.0053582,12.0261438 14.2454632,12.0261438 C15.4855683,12.0261438 16.4947469,11.0144444 16.4947469,9.77124183 Z M6.747851,-1.12132525e-13 C6.10230659,-1.12132525e-13 5.55648042,0.411895425 5.34504776,0.986143791 C6.41645654,1.1124183 7.34241165,1.64382353 8.17539637,1.94071895 C8.48204871,0.93503268 7.72104107,-1.1146494e-13 6.747851,-1.1146494e-13 L6.747851,-1.12132525e-13 Z" id="Shape" transform="translate(8.997135, 6.764706) rotate(-180.000000) translate(-8.997135, -6.764706) "></path>
                        </g>
                    </g>
                </g>
            </g>
        </g>
    </g>
</svg>