<?xml version="1.0" encoding="UTF-8"?>
<svg width="13px" height="15px" viewBox="0 0 13 15" version="1.1" xmlns="http://www.w3.org/2000/svg" xmlns:xlink="http://www.w3.org/1999/xlink">
    <!-- Generator: Sketch 43 (38999) - http://www.bohemiancoding.com/sketch -->
    <title>iconmonstr-file-11</title>
    <desc>Created with Sketch.</desc>
    <defs></defs>
    <g id="Page-1" stroke="none" stroke-width="1" fill="none" fill-rule="evenodd">
        <g id="new-courier-waybill" transform="translate(-315.000000, -985.000000)" fill-rule="nonzero" fill="#D2E0F9">
            <g id="Shortchuts" transform="translate(30.000000, 923.000000)">
                <g id="Group-2" transform="translate(0.000000, 48.000000)">
                    <g id="Short-cut" transform="translate(179.000000, 23.000000) rotate(-180.000000) translate(-179.000000, -23.000000) ">
                        <g id="iconmonstr-file-11" transform="translate(66.593123, 24.352941) rotate(-180.000000) translate(-66.593123, -24.352941) translate(60.295129, 17.137255)">
                            <path d="M8.09061337,2.4503268 C9.39979144,3.15626144 11.0075644,4.40698039 11.8962114,5.60839216 C11.131285,5.06721569 10.1052368,4.99084967 8.88765954,5.27827451 C9.01970748,4.39495425 8.77761958,3.15265359 8.09061337,2.4503268 Z M7.59989465,6.61437908 C7.59989465,6.61437908 8.50519634,2.40522876 5.6162014,2.40522876 L2.37924228,2.40522876 L2.37924228,14.4313725 L11.8962114,14.4313725 L11.8962114,8.04007843 C11.8962114,5.98360784 9.38967966,6.16640523 7.59989465,6.61437908 Z M7.41074489,1.80392157 L6.54291627,1.20261438 L1.18962114,1.20261438 L1.18962114,13.2287582 L1.78443171,13.2287582 L1.78443171,1.80392157 L7.41074489,1.80392157 Z M5.95762267,0.60130719 L5.06540681,0 L8.8817842e-17,0 L8.8817842e-17,12.0261438 L0.59481057,12.0261438 L0.59481057,0.60130719 L5.95762267,0.60130719 Z" id="Shape"></path>
                        </g>
                    </g>
                </g>
            </g>
        </g>
    </g>
</svg>