<?xml version="1.0" encoding="UTF-8"?>
<svg width="17px" height="17px" viewBox="0 0 17 17" version="1.1" xmlns="http://www.w3.org/2000/svg" xmlns:xlink="http://www.w3.org/1999/xlink">
    <!-- Generator: Sketch 43 (38999) - http://www.bohemiancoding.com/sketch -->
    <title>iconmonstr-magnifier-9</title>
    <desc>Created with Sketch.</desc>
    <defs></defs>
    <g id="Page-1" stroke="none" stroke-width="1" fill="none" fill-rule="evenodd">
        <g id="new-courier-waybill" transform="translate(-133.000000, -985.000000)" fill-rule="nonzero" fill="#D2E0F9">
            <g id="Shortchuts" transform="translate(30.000000, 923.000000)">
                <g id="Group-2" transform="translate(0.000000, 48.000000)">
                    <g id="iconmonstr-magnifier-9" transform="translate(103.467049, 14.431373)">
                        <path d="M8.7722063,5.41176471 L3.3739255,5.41176471 L3.3739255,4.05882353 L8.7722063,4.05882353 L8.7722063,5.41176471 Z M8.7722063,8.11764706 L3.3739255,8.11764706 L3.3739255,6.76470588 L8.7722063,6.76470588 L8.7722063,8.11764706 Z M14.2865501,16.2352941 L9.30191261,11.2382059 C8.36531089,11.8294412 7.26136246,12.1764706 6.0730659,12.1764706 C2.71870917,12.1764706 0,9.45097059 0,6.08823529 C0,2.7255 2.71870917,0 6.0730659,0 C9.42742264,0 12.1461318,2.7255 12.1461318,6.08823529 C12.1461318,7.2795 11.7992923,8.38688235 11.2102049,9.32514706 L16.1948424,14.3222353 L14.2865501,16.2352941 Z M6.0730659,10.8235294 C8.6770616,10.8235294 10.7965616,8.69941176 10.7965616,6.08823529 C10.7965616,3.47705882 8.6770616,1.35294118 6.0730659,1.35294118 C3.4690702,1.35294118 1.3495702,3.47705882 1.3495702,6.08823529 C1.3495702,8.69941176 3.4690702,10.8235294 6.0730659,10.8235294 Z" id="Shape"></path>
                    </g>
                </g>
            </g>
        </g>
    </g>
</svg>