<?xml version="1.0" encoding="UTF-8"?>
<svg width="19px" height="17px" viewBox="0 0 19 17" version="1.1" xmlns="http://www.w3.org/2000/svg" xmlns:xlink="http://www.w3.org/1999/xlink">
    <!-- Generator: Sketch 43 (38999) - http://www.bohemiancoding.com/sketch -->
    <title>iconmonstr-shipping-box-11 (2)</title>
    <desc>Created with Sketch.</desc>
    <defs></defs>
    <g id="Page-1" stroke="none" stroke-width="1" fill="none" fill-rule="evenodd">
        <g id="new-courier-waybill" transform="translate(-221.000000, -985.000000)" fill-rule="nonzero" fill="#D2E0F9">
            <g id="Shortchuts" transform="translate(30.000000, 923.000000)">
                <g id="Group-2" transform="translate(0.000000, 48.000000)">
                    <g id="Short-cut" transform="translate(179.000000, 23.000000) rotate(-180.000000) translate(-179.000000, -23.000000) ">
                        <g id="iconmonstr-shipping-box-11-(2)" transform="translate(157.361032, 23.068627) rotate(-180.000000) translate(-157.361032, -23.068627) translate(148.361032, 14.568627)">
                            <path d="M13.1761401,11.7181925 L12.9236478,11.8620963 L12.9236478,10.5950053 L13.1761401,10.4511016 L13.1761401,11.7181925 Z M15.2542329,9.26518717 L15.0024767,9.40909091 L15.0024767,10.6761818 L15.2542329,10.5315401 L15.2542329,9.26518717 L15.2542329,9.26518717 Z M17.8306851,3.65515508 L17.8306851,12.1469519 L10.6534254,16.2352941 L3.10810107,12.5535722 L3.10810107,4.0617754 L10.297875,7.10542736e-15 L17.8306851,3.65515508 L17.8306851,3.65515508 Z M9.11049857,2.35854545 L14.2795978,4.72004278 L15.5310175,4.0433262 L10.2949305,1.68699465 L9.11049857,2.35854545 L9.11049857,2.35854545 Z M9.73326387,8.0431123 L4.58035947,5.65209626 L4.58035947,11.6960535 L9.73326387,14.0191765 L9.73326387,8.0431123 L9.73326387,8.0431123 Z M11.9571102,5.97016043 L6.9381813,3.57914439 L5.43279708,4.44109091 L10.4819073,6.77380749 L11.9571102,5.97016043 Z M16.3584267,5.27425668 L14.8861683,6.0697861 L14.8861683,8.12576471 L12.6777807,9.37145455 L12.6777807,7.26381818 L11.2055223,8.05934759 L11.2055223,14.2302353 L16.3584267,11.2894332 L16.3584267,5.27425668 L16.3584267,5.27425668 Z M12.7462407,10.6968449 L12.4893316,10.8437005 L12.4893316,12.1078396 L12.7462407,11.9639358 L12.7462407,10.6968449 L12.7462407,10.6968449 Z M13.7805022,10.1064706 L13.5272738,10.2511123 L13.5272738,11.5182032 L13.7805022,11.3735615 L13.7805022,10.1064706 L13.7805022,10.1064706 Z M14.2030404,9.86515508 L13.9505481,10.0090588 L13.9505481,11.2761497 L14.2030404,11.132246 L14.2030404,9.86515508 Z M14.6329398,9.62014973 L14.3752946,9.76700535 L14.3752946,11.0340963 L14.6329398,10.8872406 L14.6329398,9.62014973 Z M2.37197187,6.64171123 L0.899713467,6.64171123 L0.899713467,7.37967914 L2.37197187,7.37967914 L2.37197187,6.64171123 Z M2.37197187,8.11764706 L0.163584267,8.11764706 L0.163584267,8.85561497 L2.37197187,8.85561497 L2.37197187,8.11764706 Z M2.37197187,9.59358289 L0.899713467,9.59358289 L0.899713467,10.3315508 L2.37197187,10.3315508 L2.37197187,9.59358289 Z" id="Shape"></path>
                        </g>
                    </g>
                </g>
            </g>
        </g>
    </g>
</svg>