<?xml version="1.0" encoding="UTF-8"?>
<svg width="13px" height="16px" viewBox="0 0 13 16" version="1.1" xmlns="http://www.w3.org/2000/svg" xmlns:xlink="http://www.w3.org/1999/xlink">
    <!-- Generator: Sketch 43 (38999) - http://www.bohemiancoding.com/sketch -->
    <title>iconmonstr-file-9</title>
    <desc>Created with Sketch.</desc>
    <defs></defs>
    <g id="Page-1" stroke="none" stroke-width="1" fill="none" fill-rule="evenodd">
        <g id="new-courier-waybill" transform="translate(-91.000000, -985.000000)" fill-rule="nonzero" fill="#D2E0F9">
            <g id="Shortchuts" transform="translate(30.000000, 923.000000)">
                <g id="Group-2" transform="translate(0.000000, 48.000000)">
                    <g id="iconmonstr-file-9" transform="translate(60.481375, 14.431373)">
                        <path d="M9.36765473,2.60347222 C10.7703455,3.35352778 12.4929594,4.68241667 13.4450812,5.95891667 C12.6255172,5.38391667 11.5261798,5.30277778 10.2216328,5.60816667 C10.3631127,4.66963889 10.1037328,3.34969444 9.36765473,2.60347222 Z M8.84188467,7.02777778 C8.84188467,7.02777778 9.81185076,2.55555556 6.71649904,2.55555556 L3.24832856,2.55555556 L3.24832856,15.3333333 L13.4450812,15.3333333 L13.4450812,8.54258333 C13.4450812,6.35758333 10.7595115,6.55180556 8.84188467,7.02777778 Z M8.34670487,1.27777778 L6.43481375,0 L0.699140401,0 L0.699140401,14.0555556 L1.97373448,14.0555556 L1.97373448,1.27777778 L8.34670487,1.27777778 Z" id="Shape"></path>
                    </g>
                </g>
            </g>
        </g>
    </g>
</svg>