<?xml version="1.0" encoding="UTF-8"?>
<svg width="14px" height="14px" viewBox="0 0 14 14" version="1.1" xmlns="http://www.w3.org/2000/svg" xmlns:xlink="http://www.w3.org/1999/xlink">
    <!-- Generator: Sketch 43 (38999) - http://www.bohemiancoding.com/sketch -->
    <title>iconmonstr-note-19</title>
    <desc>Created with Sketch.</desc>
    <defs></defs>
    <g id="Page-1" stroke="none" stroke-width="1" fill="none" fill-rule="evenodd">
        <g id="new-courier-waybill" transform="translate(-44.000000, -986.000000)" fill-rule="nonzero" fill="#D2E0F9">
            <g id="Shortchuts" transform="translate(30.000000, 923.000000)">
                <g id="Group-2" transform="translate(0.000000, 48.000000)">
                    <g id="Short-cut" transform="translate(179.000000, 23.000000) rotate(-180.000000) translate(-179.000000, -23.000000) ">
                        <g id="iconmonstr-note-19" transform="translate(330.108883, 17.137255)">
                            <path d="M3.3739255,12.4019608 L3.3739255,3.38235294 L12.3710602,3.38235294 L12.3710602,7.63453431 C12.3710602,9.9497549 8.99713467,9.01960784 8.99713467,9.01960784 C8.99713467,9.01960784 9.85073782,12.4019608 7.51373209,12.4019608 L3.3739255,12.4019608 Z M13.495702,8.1097549 L13.495702,2.25490196 L2.24928367,2.25490196 L2.24928367,13.5294118 L7.97877149,13.5294118 C9.75739255,13.5294118 13.495702,9.45762255 13.495702,8.1097549 Z M7.87249284,9.01960784 L5.06088825,9.01960784 L5.06088825,8.45588235 L7.87249284,8.45588235 L7.87249284,9.01960784 Z M10.6840974,6.76470588 L5.06088825,6.76470588 L5.06088825,7.32843137 L10.6840974,7.32843137 L10.6840974,6.76470588 Z M10.6840974,5.07352941 L5.06088825,5.07352941 L5.06088825,5.6372549 L10.6840974,5.6372549 L10.6840974,5.07352941 Z M11.8087393,1.12745098 L1.12464183,1.12745098 L1.12464183,11.8382353 L0,11.8382353 L0,0 L11.8087393,0 L11.8087393,1.12745098 Z" id="Shape"></path>
                        </g>
                    </g>
                </g>
            </g>
        </g>
    </g>
</svg>