<?xml version="1.0" encoding="UTF-8"?>
<svg width="14px" height="14px" viewBox="0 0 14 14" version="1.1" xmlns="http://www.w3.org/2000/svg" xmlns:xlink="http://www.w3.org/1999/xlink">
    <!-- Generator: Sketch 43 (38999) - http://www.bohemiancoding.com/sketch -->
    <title>Shape</title>
    <desc>Created with Sketch.</desc>
    <defs></defs>
    <g id="Page-1" stroke="none" stroke-width="1" fill="none" fill-rule="evenodd">
        <g id="new-courier-waybill" transform="translate(-356.000000, -987.000000)" fill-rule="nonzero" fill="#D2E0F9">
            <g id="Shortchuts" transform="translate(30.000000, 923.000000)">
                <g id="Group-2" transform="translate(0.000000, 48.000000)">
                    <g id="Short-cut" transform="translate(179.000000, 23.000000) rotate(-180.000000) translate(-179.000000, -23.000000) ">
                        <g id="iconmonstr-plus-4" transform="translate(18.000000, 16.000000)">
                            <path d="M7,0 C3.13425,0 0,3.13425 0,7 C0,10.86575 3.13425,14 7,14 C10.86575,14 14,10.86575 14,7 C14,3.13425 10.86575,0 7,0 Z M11.0833333,8.16666667 L8.16666667,8.16666667 L8.16666667,11.0833333 L5.83333333,11.0833333 L5.83333333,8.16666667 L2.91666667,8.16666667 L2.91666667,5.83333333 L5.83333333,5.83333333 L5.83333333,2.91666667 L8.16666667,2.91666667 L8.16666667,5.83333333 L11.0833333,5.83333333 L11.0833333,8.16666667 Z" id="Shape"></path>
                        </g>
                    </g>
                </g>
            </g>
        </g>
    </g>
</svg>