<?xml version="1.0" encoding="UTF-8"?>
<svg width="13px" height="15px" viewBox="0 0 13 15" version="1.1" xmlns="http://www.w3.org/2000/svg" xmlns:xlink="http://www.w3.org/1999/xlink">
    <!-- Generator: Sketch 43 (38999) - http://www.bohemiancoding.com/sketch -->
    <title>Shape</title>
    <desc>Created with Sketch.</desc>
    <defs></defs>
    <g id="Page-1" stroke="none" stroke-width="1" fill="none" fill-rule="evenodd">
        <g id="new-courier-waybill" transform="translate(-269.000000, -987.000000)" fill-rule="nonzero" fill="#D2E0F9">
            <g id="Shortchuts" transform="translate(30.000000, 923.000000)">
                <g id="Group-2" transform="translate(0.000000, 48.000000)">
                    <g id="iconmonstr-file-23" transform="translate(239.323782, 16.235294)">
                        <path d="M7.53839924,0.0450980392 C8.85917861,0.75103268 11.1000649,2.98128105 11.9961796,4.18269281 C11.2248252,3.64151634 9.57055205,3.1863268 8.34274308,3.47375163 C8.47590067,2.59103268 8.23177841,0.747424837 7.53839924,0.0450980392 L7.53839924,0.0450980392 Z M11.9961796,6.61437908 L11.9961796,14.4313725 L0,14.4313725 L0,0 L5.0437937,0 C7.9570659,0 7.04415664,4.81045752 7.04415664,4.81045752 C8.84898185,4.36248366 11.9961796,4.5585098 11.9961796,6.61437908 Z M2.39923591,9.62091503 L5.3982808,9.62091503 L5.3982808,7.21568627 L2.39923591,7.21568627 L2.39923591,9.62091503 Z M9.59694365,10.8235294 L2.39923591,10.8235294 L2.39923591,11.4248366 L9.59694365,11.4248366 L9.59694365,10.8235294 Z M9.59694365,9.01960784 L6.59789876,9.01960784 L6.59789876,9.62091503 L9.59694365,9.62091503 L9.59694365,9.01960784 Z M9.59694365,7.21568627 L6.59789876,7.21568627 L6.59789876,7.81699346 L9.59694365,7.81699346 L9.59694365,7.21568627 Z" id="Shape"></path>
                    </g>
                </g>
            </g>
        </g>
    </g>
</svg>