<?xml version="1.0" encoding="UTF-8"?>
<svg width="10px" height="9px" viewBox="0 0 10 9" version="1.1" xmlns="http://www.w3.org/2000/svg" xmlns:xlink="http://www.w3.org/1999/xlink">
    <!-- Generator: Sketch 43 (38999) - http://www.bohemiancoding.com/sketch -->
    <title></title>
    <desc>Created with Sketch.</desc>
    <defs></defs>
    <g id="Page-1" stroke="none" stroke-width="1" fill="none" fill-rule="evenodd">
        <g id="new-courier-waybill" transform="translate(-605.000000, 0.000000)" fill="#C95E5E">
            <g id="bar-main" transform="translate(0.000000, -2.000000)">
                <g id="Main">
                    <path d="M613.492188,2 C613.773439,2 614.011718,2.09374906 614.207031,2.28125 C614.402345,2.46875094 614.5,2.71093602 614.5,3.0078125 L614.5,9.9921875 C614.5,10.2734389 614.402345,10.5117178 614.207031,10.7070312 C614.011718,10.9023447 613.773439,11 613.492188,11 L606.507812,11 C606.226561,11 605.988282,10.9023447 605.792969,10.7070312 C605.597655,10.5117178 605.5,10.2734389 605.5,9.9921875 L605.5,8 L606.507812,8 L606.507812,9.9921875 L613.492188,9.9921875 L613.492188,3.0078125 L606.507812,3.0078125 L606.507812,5 L605.5,5 L605.5,3.0078125 C605.5,2.71093602 605.593749,2.46875094 605.78125,2.28125 C605.968751,2.09374906 606.210936,2 606.507812,2 L613.492188,2 Z M609.039062,8.28125 L610.328125,6.9921875 L605.5,6.9921875 L605.5,6.0078125 L610.328125,6.0078125 L609.039062,4.6953125 L609.742188,3.9921875 L612.25,6.5 L609.742188,9.0078125 L609.039062,8.28125 Z" id=""></path>
                </g>
            </g>
        </g>
    </g>
</svg>