<?xml version="1.0" encoding="UTF-8"?>
<svg width="20px" height="16px" viewBox="0 0 20 16" version="1.1" xmlns="http://www.w3.org/2000/svg" xmlns:xlink="http://www.w3.org/1999/xlink">
    <!-- Generator: Sketch 43 (38999) - http://www.bohemiancoding.com/sketch -->
    <title></title>
    <desc>Created with Sketch.</desc>
    <defs></defs>
    <g id="Page-1" stroke="none" stroke-width="1" fill="none" fill-rule="evenodd">
        <g id="new-courier-waybill" transform="translate(-203.000000, -413.000000)" fill="#0FC930">
            <g id="Sender-information" transform="translate(28.000000, 117.000000)">
                <g id="Content" transform="translate(16.000000, 54.000000)">
                    <g id="Input-Copy-9" transform="translate(2.000000, 239.000000)">
                        <path d="M174.347656,3.40234375 C174.863284,3.43098973 175.292967,3.61718578 175.636719,3.9609375 C175.98047,4.30468922 176.152344,4.73437242 176.152344,5.25 L176.152344,16.25 C176.152344,16.7656276 175.98047,17.1953108 175.636719,17.5390625 C175.292967,17.8828142 174.863284,18.0690103 174.347656,18.0976562 L159.652344,18.0976562 C159.136716,18.0690103 158.707033,17.8828142 158.363281,17.5390625 C158.01953,17.1953108 157.847656,16.7656276 157.847656,16.25 L157.847656,5.25 C157.847656,4.73437242 158.01953,4.30468922 158.363281,3.9609375 C158.707033,3.61718578 159.136716,3.43098973 159.652344,3.40234375 L174.347656,3.40234375 Z M174.347656,16.25 L174.347656,7.09765625 L167,11.6523438 L159.652344,7.09765625 L159.652344,16.25 L174.347656,16.25 Z M174.347656,5.25 L159.652344,5.25 L167,9.84765625 L174.347656,5.25 Z" id=""></path>
                    </g>
                </g>
            </g>
        </g>
    </g>
</svg>