<?xml version="1.0" encoding="UTF-8"?>
<svg width="11px" height="12px" viewBox="0 0 11 12" version="1.1" xmlns="http://www.w3.org/2000/svg" xmlns:xlink="http://www.w3.org/1999/xlink">
    <!-- Generator: Sketch 43 (38999) - http://www.bohemiancoding.com/sketch -->
    <title></title>
    <desc>Created with Sketch.</desc>
    <defs></defs>
    <g id="Page-1" stroke="none" stroke-width="1" fill="none" fill-rule="evenodd">
        <g id="new-courier-waybill" transform="translate(-994.000000, -15.000000)" fill="#FFFFFF">
            <g id="bar-main">
                <g id="Main">
                    <path d="M999.549714,22.6827135 C1000.10058,22.665499 1000.55675,22.4761425 1000.91826,22.1146384 C1001.27976,21.7531342 1001.46051,21.2969572 1001.46051,20.7460938 C1001.46051,20.1952303 1001.27976,19.7390533 1000.91826,19.3775491 C1000.55675,19.016045 1000.10058,18.8352956 999.549714,18.8352956 C998.998851,18.8352956 998.542674,19.016045 998.18117,19.3775491 C997.819666,19.7390533 997.638916,20.1952303 997.638916,20.7460938 C997.638916,21.2969572 997.819666,21.7531342 998.18117,22.1146384 C998.542674,22.4761425 998.998851,22.665499 999.549714,22.6827135 Z M1003.65535,21.2883473 L1004.81732,22.1921031 C1004.92061,22.29539 1004.93782,22.4158896 1004.86896,22.5536055 L1003.75863,24.4644036 C1003.68978,24.584905 1003.57788,24.6193334 1003.42295,24.56769 L1002.05441,24.0254365 C1001.77898,24.2492248 1001.46912,24.4299741 1001.12483,24.56769 L1000.91826,26.0136994 C1000.88383,26.1686297 1000.79776,26.2460938 1000.66004,26.2460938 L998.439386,26.2460938 C998.30167,26.2460938 998.215599,26.1686297 998.18117,26.0136994 L997.974597,24.56769 C997.630307,24.4299741 997.320451,24.2492248 997.045019,24.0254365 L995.676475,24.56769 C995.521545,24.6193334 995.409652,24.584905 995.340794,24.4644036 L994.230466,22.5536055 C994.161608,22.4158896 994.178822,22.29539 994.282109,22.1921031 L995.444081,21.2883473 C995.426866,21.1162024 995.418259,20.9354531 995.418259,20.7460938 C995.418259,20.5567344 995.426866,20.3759851 995.444081,20.2038402 L994.282109,19.3000844 C994.178822,19.1967975 994.161608,19.0762979 994.230466,18.938582 L995.340794,17.0277839 C995.409652,16.9072825 995.521545,16.8728541 995.676475,16.9244975 L997.045019,17.466751 C997.320451,17.2429627 997.630307,17.0622134 997.974597,16.9244975 L998.18117,15.4784881 C998.215599,15.3235578 998.30167,15.2460938 998.439386,15.2460938 L1000.66004,15.2460938 C1000.79776,15.2460938 1000.88383,15.3235578 1000.91826,15.4784881 L1001.12483,16.9244975 C1001.46912,17.0622134 1001.77898,17.2429627 1002.05441,17.466751 L1003.42295,16.9244975 C1003.57788,16.8728541 1003.68978,16.9072825 1003.75863,17.0277839 L1004.86896,18.938582 C1004.93782,19.0762979 1004.92061,19.1967975 1004.81732,19.3000844 L1003.65535,20.2038402 C1003.67256,20.3759851 1003.68117,20.5567344 1003.68117,20.7460938 C1003.68117,20.9354531 1003.67256,21.1162024 1003.65535,21.2883473 Z" id=""></path>
                </g>
            </g>
        </g>
    </g>
</svg>